<svg width="497" height="863" viewBox="0 0 497 863" fill="none" xmlns="http://www.w3.org/2000/svg">
<path fill-rule="evenodd" clip-rule="evenodd" d="M107.068 0.163809L107.068 0.163896C61.5797 14.4564 33.7235 58.4243 38.5055 103.657C29.9545 96.9128 18.3263 94.3744 7.15252 97.8853C-10.8071 103.528 -20.7917 122.662 -15.1487 140.621C-10.876 154.22 1.13098 163.246 14.5064 164.379L14.5041 164.379L38.9817 242.283L35.9779 243.227C22.6526 247.413 15.2444 261.61 19.4313 274.935L120.373 596.196C124.559 609.521 138.756 616.929 152.081 612.743L155.085 611.799L203.527 765.972L228.175 758.227L179.733 604.054L182.736 603.111C196.062 598.924 203.47 584.727 199.283 571.402L98.3416 250.141C94.1547 236.816 79.9583 229.408 66.633 233.595L63.6297 234.538L39.1521 156.635L39.1506 156.635C44.3232 152.337 48.0807 146.61 50.0052 140.254C71.9541 180.092 119.95 200.225 165.437 185.933L165.437 185.932L107.068 0.163809ZM266.461 844.77C270.648 858.096 284.845 865.504 298.17 861.317L328.825 851.685C342.15 847.498 349.559 833.302 345.372 819.977L331.92 777.163L368.924 765.536L387.014 756.902L404.178 747.751L421.875 736.972L439.711 725.951L455.715 710.475L468.664 694.554L478.293 683.342L485.31 668.676L492.037 648.606L494.226 628.709L496.74 613.044L496.526 596.602L491.159 579.52L481.154 563.442L321.215 613.696L330.392 627.375L336.737 642.678L340.65 659.707L341.054 676.836L337.903 689.95L331.707 702.898L321.623 711.592L312.835 716.425L298.032 669.312C293.845 655.986 279.649 648.578 266.324 652.765L235.668 662.397C222.343 666.584 214.935 680.78 219.122 694.105L266.461 844.77Z" fill="#ED1B24"/>
</svg>
