<svg width="1754" height="1289" viewBox="0 0 1754 1289" fill="none" xmlns="http://www.w3.org/2000/svg">
<path d="M696.7 1088.03C882.721 1155.35 792.826 1191.74 745.812 1288.93C825.836 1185.74 1236.96 966.672 893.687 904.107C666.842 862.762 1527.76 775.051 1704.04 599.74C1880.33 424.429 2151.91 587.016 1807.6 397.68C1463.28 208.344 685.502 324.412 475.97 315.062C266.437 305.712 617.763 186.5 610.099 88.326C603.967 9.78666 230.445 -12.9796 11.8011 8.83693C180.626 48.5741 392.427 193.98 150.228 270.65C-152.521 366.486 -4.46365 449.984 294.746 536.471C593.956 622.958 -42.9628 580.909 -214.495 812.319C-386.027 1043.73 464.174 1003.88 696.7 1088.03Z" fill="white"/>
</svg>
